<?xml version="1.0" encoding="UTF-8" standalone="no"?>
<!-- Uploaded to: SVG Repo, www.svgrepo.com, Generator: SVG Repo Mixer Tools -->

<svg
   fill="#000000"
   width="800"
   height="693.90002"
   viewBox="0 0 24 20.817001"
   role="img"
   version="1.1"
   id="svg1"
   sodipodi:docname="nix-rainbow.svg"
   inkscape:version="1.3.2 (091e20ef0f, 2023-11-25)"
   xmlns:inkscape="http://www.inkscape.org/namespaces/inkscape"
   xmlns:sodipodi="http://sodipodi.sourceforge.net/DTD/sodipodi-0.dtd"
   xmlns="http://www.w3.org/2000/svg"
   xmlns:svg="http://www.w3.org/2000/svg"
   xmlns:rdf="http://www.w3.org/1999/02/22-rdf-syntax-ns#"
   xmlns:cc="http://creativecommons.org/ns#"
   xmlns:dc="http://purl.org/dc/elements/1.1/">
  <defs
     id="defs1" />
  <sodipodi:namedview
     id="namedview1"
     pagecolor="#ffffff"
     bordercolor="#000000"
     borderopacity="0.25"
     inkscape:showpageshadow="2"
     inkscape:pageopacity="0.0"
     inkscape:pagecheckerboard="0"
     inkscape:deskcolor="#d1d1d1"
     inkscape:zoom="0.88783776"
     inkscape:cx="619.48255"
     inkscape:cy="381.26335"
     inkscape:window-width="1920"
     inkscape:window-height="920"
     inkscape:window-x="0"
     inkscape:window-y="0"
     inkscape:window-maximized="0"
     inkscape:current-layer="svg1"
     showguides="true">
    <sodipodi:guide
       position="11.297592,34.429222"
       orientation="0,-1"
       id="guide2"
       inkscape:locked="false" />
    <sodipodi:guide
       position="12.322914,12.747558"
       orientation="1,0"
       id="guide3"
       inkscape:locked="false" />
    <sodipodi:guide
       position="-0.58228668,10.100568"
       orientation="0,-1"
       id="guide4"
       inkscape:locked="false" />
  </sodipodi:namedview>
  <title
     id="title1">NixOS icon</title>
  <path
     d="m 10.804047,13.438329 0.923502,1.59055 2.177117,0.0041 1.510751,2.636141 0.929641,-0.0013 0.455611,-0.788455 -1.061959,-1.850414 2.139606,0.0054 0.900311,-1.596006 h -7.973898 z"
     id="path6"
     style="fill:#f9f49f;fill-opacity:1;stroke-width:0.682054" />
  <path
     d="m 9.064808,10.757854 -0.00409,0.0068 -0.00136,-0.0028 -0.915317,1.596007 1.0844666,1.885881 -1.5278019,2.62591 0.4665252,0.806188 h 0.9112247 l 0.00273,-0.0041 h 6.82e-4 l 1.0687794,-1.840182 1.062641,1.855188 1.833362,-0.01773 -0.0028,-0.0041 h 0.0069 z"
     id="path5"
     style="fill:#8df7bd;fill-opacity:1;stroke-width:0.682054" />
  <path
     d="M 10.498487,7.9177805 8.6596677,7.9232337 7.5676985,9.8057039 4.5305102,9.794791 4.065349,10.600979 l 0.4542483,0.789136 2.1348303,0.0054 -1.0742357,1.848368 0.9310043,1.578956 z"
     id="path4"
     style="fill:#a5c8f5;fill-opacity:1;stroke-width:0.682054" />
  <path
     d="m 17.988808,6.3497373 -3.98729,6.9058007 1.838819,-0.0054 1.091969,-1.88247 3.037188,0.01092 0.465162,-0.806892 -0.454249,-0.7891361 -2.134831,-0.00545 1.073555,-1.8497317 -0.931005,-1.5775918 z"
     id="path3"
     style="fill:#fcd49c;fill-opacity:1;stroke-width:0.682054" />
  <path
     d="M 13.291499,3.488519 11.45882,3.50557 15.446109,10.412736 16.360744,8.8167279 15.276278,6.9308474 16.804079,4.3049379 16.338237,3.4987495 h -0.911226 l -1.070825,1.8449572 -1.064004,-1.855188 z"
     id="path2"
     style="fill:#f5a3b0;fill-opacity:1;stroke-width:0.682054" />
  <path
     d="M 9.0798132,3.488519 8.149491,3.489885 7.6938786,4.27834 8.7558373,6.1287537 6.6162326,6.1232973 5.7159208,7.7193047 H 13.689137 L 12.766317,6.1287537 10.5892,6.1246634 9.0791312,3.488523 Z"
     id="path1"
     style="fill:#eda3f5;fill-opacity:1;stroke-width:0.682054" />
  <metadata
     id="metadata6">
    <rdf:RDF>
      <cc:Work
         rdf:about="">
        <dc:title>NixOS icon</dc:title>
      </cc:Work>
    </rdf:RDF>
  </metadata>
</svg>
