<?xml version="1.0" encoding="UTF-8" standalone="no"?>
<!-- Uploaded to: SVG Repo, www.svgrepo.com, Generator: SVG Repo Mixer Tools -->

<svg
   fill="#000000"
   width="800px"
   height="800px"
   viewBox="0 0 24 24"
   role="img"
   version="1.1"
   id="svg1"
   sodipodi:docname="nix-rainbow.svg"
   inkscape:version="1.3.2 (091e20ef0f, 2023-11-25)"
   xmlns:inkscape="http://www.inkscape.org/namespaces/inkscape"
   xmlns:sodipodi="http://sodipodi.sourceforge.net/DTD/sodipodi-0.dtd"
   xmlns="http://www.w3.org/2000/svg"
   xmlns:svg="http://www.w3.org/2000/svg"
   xmlns:rdf="http://www.w3.org/1999/02/22-rdf-syntax-ns#"
   xmlns:cc="http://creativecommons.org/ns#"
   xmlns:dc="http://purl.org/dc/elements/1.1/">
  <defs
     id="defs1" />
  <sodipodi:namedview
     id="namedview1"
     pagecolor="#ffffff"
     bordercolor="#000000"
     borderopacity="0.25"
     inkscape:showpageshadow="2"
     inkscape:pageopacity="0.0"
     inkscape:pagecheckerboard="0"
     inkscape:deskcolor="#d1d1d1"
     inkscape:zoom="0.57560512"
     inkscape:cx="41.695251"
     inkscape:cy="542.90691"
     inkscape:window-width="1920"
     inkscape:window-height="920"
     inkscape:window-x="0"
     inkscape:window-y="0"
     inkscape:window-maximized="0"
     inkscape:current-layer="svg1" />
  <title
     id="title1">NixOS icon</title>
  <path
     d="m 9.88,16.18 1.354,2.332 3.192,0.006 2.215,3.865 1.363,-0.002 0.668,-1.156 -1.557,-2.713 3.137,0.008 1.32,-2.34 H 9.881 Z"
     id="path6"
     style="fill:#f9f49f;fill-opacity:1" />
  <path
     d="m 7.33,12.25 -0.006,0.01 -0.002,-0.004 -1.342,2.34 1.59,2.765 -2.24,3.85 0.684,1.182 H 7.35 l 0.004,-0.006 h 0.001 l 1.567,-2.698 1.558,2.72 2.688,-0.026 -0.004,-0.006 h 0.01 z"
     id="path5"
     style="fill:#8df7bd;fill-opacity:1" />
  <path
     d="M 9.432,8.086 6.736,8.094 5.135,10.854 0.682,10.838 0,12.02 l 0.666,1.157 3.13,0.008 -1.575,2.71 1.365,2.315 z"
     id="path4"
     style="fill:#a5c8f5;fill-opacity:1" />
  <path
     d="m 20.414,5.787 -5.846,10.125 2.696,-0.008 1.601,-2.76 4.453,0.016 L 24,11.977 23.334,10.82 20.204,10.812 21.778,8.1 20.413,5.787 Z"
     id="path3"
     style="fill:#fcd49c;fill-opacity:1" />
  <path
     d="m 13.527,1.592 -2.687,0.025 5.846,10.127 1.341,-2.34 -1.59,-2.765 2.24,-3.85 -0.683,-1.182 h -1.336 l -1.57,2.705 -1.56,-2.72 z"
     id="path2"
     style="fill:#f5a3b0;fill-opacity:1" />
  <path
     d="M 7.352,1.592 5.988,1.594 5.32,2.75 6.877,5.463 3.74,5.455 2.42,7.795 H 14.11 L 12.757,5.463 9.565,5.457 7.351,1.592 Z"
     id="path1"
     style="fill:#eda3f5;fill-opacity:1" />
  <metadata
     id="metadata6">
    <rdf:RDF>
      <cc:Work
         rdf:about="">
        <dc:title>NixOS icon</dc:title>
      </cc:Work>
    </rdf:RDF>
  </metadata>
</svg>
